<svg width="1440" height="615" viewBox="0 0 1440 615" fill="none" xmlns="http://www.w3.org/2000/svg">
<g filter="url(#filter0_f)">
<path d="M1496.12 392.803C1524.61 413.445 1556.95 435.883 1556.37 457.961C1555.79 480.04 1522.3 501.58 1494 527.248C1465.7 552.917 1442.6 582.714 1417.77 584.33C1392.94 585.945 1366.18 559.559 1344.04 533.89C1321.9 508.221 1304.39 483.271 1302.08 456.166C1299.57 429.241 1312.28 399.803 1334.42 379.161C1356.55 358.518 1388.12 346.671 1415.84 350.082C1443.76 353.313 1467.82 372.16 1496.12 392.803Z" fill="#D0067F"/>
</g>
<g filter="url(#filter1_f)">
<path d="M138.326 327.106C177.12 347.974 192.442 390.598 189.508 431.002C186.248 471.406 165.384 509.812 126.59 535.342C87.7962 561.094 31.3982 573.748 -18.1539 569.086C-68.0319 564.424 -111.064 542.668 -156.704 517.138C-202.344 491.608 -250.592 462.304 -264.61 423.232C-278.954 384.382 -259.068 335.764 -213.428 314.674C-167.788 293.806 -96.3939 300.466 -29.5639 303.574C37.2662 306.682 99.8582 306.238 138.326 327.106Z" fill="#FFC530"/>
</g>
<defs>
<filter id="filter0_f" x="927" y="-21" width="985" height="959" filterUnits="userSpaceOnUse" color-interpolation-filters="sRGB">
<feFlood flood-opacity="0" result="BackgroundImageFix"/>
<feBlend mode="normal" in="SourceGraphic" in2="BackgroundImageFix" result="shape"/>
<feGaussianBlur stdDeviation="150" result="effect1_foregroundBlur"/>
</filter>
<filter id="filter1_f" x="-651" y="-89" width="1252" height="1044" filterUnits="userSpaceOnUse" color-interpolation-filters="sRGB">
<feFlood flood-opacity="0" result="BackgroundImageFix"/>
<feBlend mode="normal" in="SourceGraphic" in2="BackgroundImageFix" result="shape"/>
<feGaussianBlur stdDeviation="150" result="effect1_foregroundBlur"/>
</filter>
</defs>
</svg>
