<?xml version="1.0" encoding="utf-8"?>
<!-- Generator: Adobe Illustrator 23.0.1, SVG Export Plug-In . SVG Version: 6.00 Build 0)  -->
<svg version="1.1" id="Layer_1" xmlns="http://www.w3.org/2000/svg" xmlns:xlink="http://www.w3.org/1999/xlink" x="0px" y="0px"
	 viewBox="0 0 1908 504" style="enable-background:new 0 0 1908 504;" xml:space="preserve">
<style type="text/css">
	.st0{clip-path:url(#SVGID_2_);}
	.st1{fill:#0084A3;}
	.st2{fill:#FFC530;fill-opacity:0.6;}
	.st3{fill:#D0067F;fill-opacity:0.6;}
</style>
<g>
	<defs>
		<rect id="SVGID_1_" x="521" width="378" height="291"/>
	</defs>
	<clipPath id="SVGID_2_">
		<use xlink:href="#SVGID_1_"  style="overflow:visible;"/>
	</clipPath>
	<g class="st0">
		<path class="st1" d="M824.8-7.8c35.1,24.7,74.9,51.5,74.2,78c-0.7,26.4-42,52.2-76.8,82.9c-34.9,30.7-63.3,66.4-93.9,68.3
			s-63.5-29.6-90.8-60.4c-27.3-30.7-48.8-60.6-51.7-93c-3.1-32.2,12.6-67.4,39.8-92.1c27.3-24.7,66.2-38.9,100.3-34.8
			C760.3-55,789.9-32.5,824.8-7.8z"/>
	</g>
</g>
<g>
	<path class="st2" d="M279.5,307.6c25.4,12.5,35.4,38,33.5,62.2c-2.1,24.2-15.8,47.2-41.2,62.5c-25.4,15.4-62.3,23-94.8,20.2
		c-32.7-2.8-60.8-15.8-90.7-31.1c-29.9-15.3-61.5-32.9-70.7-56.3c-9.4-23.3,3.6-52.4,33.5-65c29.9-12.5,76.6-8.5,120.4-6.6
		C213.3,295.3,254.3,295.1,279.5,307.6z"/>
</g>
<g>
	<path class="st3" d="M1596.9,262.6c36.4,20.5,77.7,42.8,77,64.8c-0.7,22-43.6,43.4-79.7,68.9c-36.2,25.5-65.7,55.2-97.4,56.8
		c-31.7,1.6-65.9-24.6-94.2-50.2c-28.3-25.5-50.7-50.3-53.6-77.3c-3.2-26.8,13-56,41.3-76.6c28.3-20.5,68.6-32.3,104.1-28.9
		C1530,223.3,1560.8,242,1596.9,262.6z"/>
</g>
</svg>
