<svg width="2738" height="1334" viewBox="0 0 2738 1334" fill="none" xmlns="http://www.w3.org/2000/svg">
<g clip-path="url(#clip0)" filter="url(#filter0_f)">
<path d="M1175.77 319.223C1210.87 343.922 1250.7 370.77 1249.99 397.188C1249.28 423.606 1208.02 449.38 1173.16 480.093C1138.31 510.807 1109.85 546.46 1079.27 548.393C1048.68 550.326 1015.72 518.754 988.449 488.04C961.18 457.327 939.602 427.472 936.757 395.04C933.674 362.823 949.324 327.599 976.593 302.899C1003.86 278.2 1042.75 264.024 1076.89 268.105C1111.28 271.971 1140.92 294.523 1175.77 319.223Z" fill="#0084A3"/>
</g>
<g filter="url(#filter1_f)">
<path d="M667.464 634.559C692.87 647.061 702.905 672.597 700.983 696.803C698.848 721.009 685.184 744.018 659.778 759.313C634.371 774.741 597.436 782.322 564.984 779.529C532.318 776.736 504.136 763.702 474.246 748.407C444.356 733.112 412.758 715.556 403.577 692.148C394.183 668.873 407.207 639.746 437.097 627.111C466.987 614.609 513.744 618.599 557.511 620.461C601.279 622.323 642.271 622.057 667.464 634.559Z" fill="#FFC530" fill-opacity="0.4"/>
</g>
<g filter="url(#filter2_f)">
<path d="M2110.91 593.169C2147.32 613.697 2188.64 636.009 2187.91 657.965C2187.17 679.92 2144.36 701.34 2108.2 726.866C2072.04 752.391 2042.52 782.022 2010.79 783.629C1979.05 785.235 1944.86 758.996 1916.57 733.47C1888.28 707.945 1865.89 683.133 1862.94 656.18C1859.74 629.405 1875.98 600.131 1904.27 579.603C1932.56 559.076 1972.9 547.295 2008.33 550.686C2044 553.899 2074.75 572.642 2110.91 593.169Z" fill="#D0067F" fill-opacity="0.4"/>
</g>
<defs>
<filter id="filter0_f" x="672" y="127" width="778" height="691" filterUnits="userSpaceOnUse" color-interpolation-filters="sRGB">
<feFlood flood-opacity="0" result="BackgroundImageFix"/>
<feBlend mode="normal" in="SourceGraphic" in2="BackgroundImageFix" result="shape"/>
<feGaussianBlur stdDeviation="100" result="effect1_foregroundBlur"/>
</filter>
<filter id="filter1_f" x="-53" y="165" width="1227" height="1066" filterUnits="userSpaceOnUse" color-interpolation-filters="sRGB">
<feFlood flood-opacity="0" result="BackgroundImageFix"/>
<feBlend mode="normal" in="SourceGraphic" in2="BackgroundImageFix" result="shape"/>
<feGaussianBlur stdDeviation="200" result="effect1_foregroundBlur"/>
</filter>
<filter id="filter2_f" x="1217" y="-70" width="1592" height="1457" filterUnits="userSpaceOnUse" color-interpolation-filters="sRGB">
<feFlood flood-opacity="0" result="BackgroundImageFix"/>
<feBlend mode="normal" in="SourceGraphic" in2="BackgroundImageFix" result="shape"/>
<feGaussianBlur stdDeviation="275" result="effect1_foregroundBlur"/>
</filter>
<clipPath id="clip0">
<rect width="378" height="291" fill="white" transform="translate(872 327)"/>
</clipPath>
</defs>
</svg>
