<svg width="1440" height="1411" viewBox="0 0 1440 1411" fill="none" xmlns="http://www.w3.org/2000/svg">
<g filter="url(#filter0_f)">
<path d="M1413.97 210.561C1454.51 241.872 1466.61 290.436 1459.05 333.675C1451.48 376.701 1423.65 414.402 1383.12 440.175C1342.58 466.161 1289.04 480.006 1243.97 474.042C1198.9 468.291 1161.99 442.518 1112.08 416.532C1061.86 390.759 998.643 364.773 988.358 331.758C978.375 298.743 1021.03 258.486 1071.24 226.962C1121.15 195.651 1178.33 172.86 1241.25 168.813C1304.47 164.553 1373.44 179.037 1413.97 210.561Z" fill="#A03759"/>
</g>
<g filter="url(#filter1_f)">
<path d="M1240 554.989C1291.19 588.43 1318.31 628.465 1307.38 662.612C1296.44 696.76 1247.44 725.255 1196.69 757.048C1145.94 789.076 1093 824.401 1015.56 838.06C937.687 851.483 834.875 843.241 794.625 811.213C754.375 779.185 776.687 723.842 797.687 679.804C819.125 636.001 838.812 603.266 879.062 570.061C919.312 536.855 980.125 502.708 1047.5 499.175C1114.87 495.407 1189.25 521.783 1240 554.989Z" fill="#726EF8"/>
</g>
<g filter="url(#filter2_f)">
<path d="M286.456 218.741C310.91 235.05 320.569 268.362 318.719 299.939C316.664 331.516 303.512 361.531 279.058 381.484C254.603 401.61 219.052 411.499 187.816 407.856C156.374 404.212 129.248 387.209 100.478 367.257C71.708 347.304 41.294 324.402 32.4575 293.866C23.4155 263.504 35.951 225.507 64.721 209.025C93.491 192.716 138.496 197.921 180.623 200.35C222.751 202.779 262.207 202.432 286.456 218.741Z" fill="#FFC530"/>
</g>
<g filter="url(#filter3_f)">
<path d="M331.483 663.321C362.341 698.569 397.369 736.881 396.744 774.581C396.118 812.28 359.839 849.06 329.19 892.89C298.54 936.719 273.52 987.598 246.624 990.357C219.727 993.115 190.746 948.06 166.768 904.23C142.791 860.401 123.817 817.797 121.315 771.516C118.605 725.541 132.366 675.275 156.343 640.027C180.321 604.78 214.515 584.551 244.539 590.374C274.771 595.891 300.834 628.074 331.483 663.321Z" fill="#D0067F"/>
</g>
<defs>
<filter id="filter0_f" x="483" y="-324" width="1505" height="1326" filterUnits="userSpaceOnUse" color-interpolation-filters="sRGB">
<feFlood flood-opacity="0" result="BackgroundImageFix"/>
<feBlend mode="normal" in="SourceGraphic" in2="BackgroundImageFix" result="shape"/>
<feGaussianBlur stdDeviation="225" result="effect1_foregroundBlur"/>
</filter>
<filter id="filter1_f" x="153" y="-17" width="1775" height="1371" filterUnits="userSpaceOnUse" color-interpolation-filters="sRGB">
<feFlood flood-opacity="0" result="BackgroundImageFix"/>
<feBlend mode="normal" in="SourceGraphic" in2="BackgroundImageFix" result="shape"/>
<feGaussianBlur stdDeviation="225" result="effect1_foregroundBlur"/>
</filter>
<filter id="filter2_f" x="-342" y="-192" width="1051" height="987" filterUnits="userSpaceOnUse" color-interpolation-filters="sRGB">
<feFlood flood-opacity="0" result="BackgroundImageFix"/>
<feBlend mode="normal" in="SourceGraphic" in2="BackgroundImageFix" result="shape"/>
<feGaussianBlur stdDeviation="160" result="effect1_foregroundBlur"/>
</filter>
<filter id="filter3_f" x="-380" y="49" width="1257" height="1453" filterUnits="userSpaceOnUse" color-interpolation-filters="sRGB">
<feFlood flood-opacity="0" result="BackgroundImageFix"/>
<feBlend mode="normal" in="SourceGraphic" in2="BackgroundImageFix" result="shape"/>
<feGaussianBlur stdDeviation="210" result="effect1_foregroundBlur"/>
</filter>
</defs>
</svg>
