<svg width="458" height="53" viewBox="0 0 458 53" fill="none" xmlns="http://www.w3.org/2000/svg">
<mask id="path-1-outside-1" maskUnits="userSpaceOnUse" x="0.642181" y="0.459991" width="457" height="52" fill="black">
<rect fill="white" x="0.642181" y="0.459991" width="457" height="52"/>
<path d="M80.7322 3.49999L66.1722 49H49.7272L42.3822 24.69L34.6472 49H18.2022L3.64218 3.49999H19.4372L27.3672 29.37L35.7522 3.49999H49.8572L57.7872 29.695L66.1722 3.49999H80.7322ZM121.969 37.43V49H84.1386V3.49999H121.124V15.07H99.2186V20.4H118.459V31.45H99.2186V37.43H121.969ZM164.274 25.21C166.961 26.2067 169.041 27.6583 170.514 29.565C171.987 31.4717 172.724 33.7683 172.724 36.455C172.724 40.4417 171.077 43.54 167.784 45.75C164.491 47.9167 159.724 49 153.484 49H127.874V3.49999H152.184C158.251 3.49999 162.822 4.58332 165.899 6.74999C169.019 8.91666 170.579 11.7983 170.579 15.395C170.579 17.5183 170.037 19.425 168.954 21.115C167.914 22.805 166.354 24.17 164.274 25.21ZM142.954 14.225V20.985H150.104C153.441 20.985 155.109 19.8583 155.109 17.605C155.109 15.3517 153.441 14.225 150.104 14.225H142.954ZM152.184 38.275C155.564 38.275 157.254 37.0833 157.254 34.7C157.254 32.3167 155.564 31.125 152.184 31.125H142.954V38.275H152.184ZM197.635 3.49999H220.06C225.13 3.49999 229.593 4.43166 233.45 6.29499C237.35 8.11499 240.361 10.7367 242.485 14.16C244.651 17.5833 245.735 21.6133 245.735 26.25C245.735 30.8867 244.651 34.9167 242.485 38.34C240.361 41.7633 237.35 44.4067 233.45 46.27C229.593 48.09 225.13 49 220.06 49H197.635V3.49999ZM219.41 37.04C222.703 37.04 225.325 36.1083 227.275 34.245C229.268 32.3383 230.265 29.6733 230.265 26.25C230.265 22.8267 229.268 20.1833 227.275 18.32C225.325 16.4133 222.703 15.46 219.41 15.46H212.975V37.04H219.41ZM289.166 37.43V49H251.336V3.49999H288.321V15.07H266.416V20.4H285.656V31.45H266.416V37.43H289.166ZM312.036 50.04C308.266 50.04 304.583 49.6283 300.986 48.805C297.433 47.9383 294.508 46.79 292.211 45.36L297.151 34.18C299.318 35.4367 301.745 36.455 304.431 37.235C307.118 37.9717 309.696 38.34 312.166 38.34C314.29 38.34 315.806 38.145 316.716 37.755C317.626 37.3217 318.081 36.6933 318.081 35.87C318.081 34.9167 317.475 34.2017 316.261 33.725C315.091 33.2483 313.141 32.7283 310.411 32.165C306.901 31.4283 303.976 30.6483 301.636 29.825C299.296 28.9583 297.26 27.5717 295.526 25.665C293.793 23.715 292.926 21.0933 292.926 17.8C292.926 14.94 293.728 12.34 295.331 9.99999C296.935 7.65999 299.318 5.81832 302.481 4.47499C305.688 3.13166 309.566 2.45999 314.116 2.45999C317.236 2.45999 320.291 2.80666 323.281 3.49999C326.315 4.14999 328.98 5.12499 331.276 6.42499L326.661 17.54C322.198 15.2867 317.973 14.16 313.986 14.16C310.043 14.16 308.071 15.1133 308.071 17.02C308.071 17.93 308.656 18.6233 309.826 19.1C310.996 19.5333 312.925 20.01 315.611 20.53C319.078 21.18 322.003 21.9383 324.386 22.805C326.77 23.6283 328.828 24.9933 330.561 26.9C332.338 28.8067 333.226 31.4067 333.226 34.7C333.226 37.56 332.425 40.16 330.821 42.5C329.218 44.7967 326.813 46.6383 323.606 48.025C320.443 49.3683 316.586 50.04 312.036 50.04ZM337.791 3.49999H353.131V49H337.791V3.49999ZM390.611 25.015H403.936V44.255C401.249 46.1183 398.129 47.5483 394.576 48.545C391.022 49.5417 387.534 50.04 384.111 50.04C379.257 50.04 374.902 49.0433 371.046 47.05C367.189 45.0133 364.156 42.1967 361.946 38.6C359.779 34.96 358.696 30.8433 358.696 26.25C358.696 21.6567 359.779 17.5617 361.946 13.965C364.156 10.325 367.211 7.50832 371.111 5.51499C375.054 3.47832 379.496 2.45999 384.436 2.45999C388.899 2.45999 392.886 3.21832 396.396 4.73499C399.949 6.20832 402.896 8.37499 405.236 11.235L395.421 19.88C392.561 16.5433 389.159 14.875 385.216 14.875C381.836 14.875 379.149 15.8933 377.156 17.93C375.162 19.9667 374.166 22.74 374.166 26.25C374.166 29.6733 375.141 32.425 377.091 34.505C379.084 36.585 381.727 37.625 385.021 37.625C386.971 37.625 388.834 37.2567 390.611 36.52V25.015ZM455.322 3.49999V49H442.712L425.422 28.33V49H410.472V3.49999H423.082L440.372 24.17V3.49999H455.322Z"/>
</mask>
<path d="M80.7322 3.49999L66.1722 49H49.7272L42.3822 24.69L34.6472 49H18.2022L3.64218 3.49999H19.4372L27.3672 29.37L35.7522 3.49999H49.8572L57.7872 29.695L66.1722 3.49999H80.7322ZM121.969 37.43V49H84.1386V3.49999H121.124V15.07H99.2186V20.4H118.459V31.45H99.2186V37.43H121.969ZM164.274 25.21C166.961 26.2067 169.041 27.6583 170.514 29.565C171.987 31.4717 172.724 33.7683 172.724 36.455C172.724 40.4417 171.077 43.54 167.784 45.75C164.491 47.9167 159.724 49 153.484 49H127.874V3.49999H152.184C158.251 3.49999 162.822 4.58332 165.899 6.74999C169.019 8.91666 170.579 11.7983 170.579 15.395C170.579 17.5183 170.037 19.425 168.954 21.115C167.914 22.805 166.354 24.17 164.274 25.21ZM142.954 14.225V20.985H150.104C153.441 20.985 155.109 19.8583 155.109 17.605C155.109 15.3517 153.441 14.225 150.104 14.225H142.954ZM152.184 38.275C155.564 38.275 157.254 37.0833 157.254 34.7C157.254 32.3167 155.564 31.125 152.184 31.125H142.954V38.275H152.184ZM197.635 3.49999H220.06C225.13 3.49999 229.593 4.43166 233.45 6.29499C237.35 8.11499 240.361 10.7367 242.485 14.16C244.651 17.5833 245.735 21.6133 245.735 26.25C245.735 30.8867 244.651 34.9167 242.485 38.34C240.361 41.7633 237.35 44.4067 233.45 46.27C229.593 48.09 225.13 49 220.06 49H197.635V3.49999ZM219.41 37.04C222.703 37.04 225.325 36.1083 227.275 34.245C229.268 32.3383 230.265 29.6733 230.265 26.25C230.265 22.8267 229.268 20.1833 227.275 18.32C225.325 16.4133 222.703 15.46 219.41 15.46H212.975V37.04H219.41ZM289.166 37.43V49H251.336V3.49999H288.321V15.07H266.416V20.4H285.656V31.45H266.416V37.43H289.166ZM312.036 50.04C308.266 50.04 304.583 49.6283 300.986 48.805C297.433 47.9383 294.508 46.79 292.211 45.36L297.151 34.18C299.318 35.4367 301.745 36.455 304.431 37.235C307.118 37.9717 309.696 38.34 312.166 38.34C314.29 38.34 315.806 38.145 316.716 37.755C317.626 37.3217 318.081 36.6933 318.081 35.87C318.081 34.9167 317.475 34.2017 316.261 33.725C315.091 33.2483 313.141 32.7283 310.411 32.165C306.901 31.4283 303.976 30.6483 301.636 29.825C299.296 28.9583 297.26 27.5717 295.526 25.665C293.793 23.715 292.926 21.0933 292.926 17.8C292.926 14.94 293.728 12.34 295.331 9.99999C296.935 7.65999 299.318 5.81832 302.481 4.47499C305.688 3.13166 309.566 2.45999 314.116 2.45999C317.236 2.45999 320.291 2.80666 323.281 3.49999C326.315 4.14999 328.98 5.12499 331.276 6.42499L326.661 17.54C322.198 15.2867 317.973 14.16 313.986 14.16C310.043 14.16 308.071 15.1133 308.071 17.02C308.071 17.93 308.656 18.6233 309.826 19.1C310.996 19.5333 312.925 20.01 315.611 20.53C319.078 21.18 322.003 21.9383 324.386 22.805C326.77 23.6283 328.828 24.9933 330.561 26.9C332.338 28.8067 333.226 31.4067 333.226 34.7C333.226 37.56 332.425 40.16 330.821 42.5C329.218 44.7967 326.813 46.6383 323.606 48.025C320.443 49.3683 316.586 50.04 312.036 50.04ZM337.791 3.49999H353.131V49H337.791V3.49999ZM390.611 25.015H403.936V44.255C401.249 46.1183 398.129 47.5483 394.576 48.545C391.022 49.5417 387.534 50.04 384.111 50.04C379.257 50.04 374.902 49.0433 371.046 47.05C367.189 45.0133 364.156 42.1967 361.946 38.6C359.779 34.96 358.696 30.8433 358.696 26.25C358.696 21.6567 359.779 17.5617 361.946 13.965C364.156 10.325 367.211 7.50832 371.111 5.51499C375.054 3.47832 379.496 2.45999 384.436 2.45999C388.899 2.45999 392.886 3.21832 396.396 4.73499C399.949 6.20832 402.896 8.37499 405.236 11.235L395.421 19.88C392.561 16.5433 389.159 14.875 385.216 14.875C381.836 14.875 379.149 15.8933 377.156 17.93C375.162 19.9667 374.166 22.74 374.166 26.25C374.166 29.6733 375.141 32.425 377.091 34.505C379.084 36.585 381.727 37.625 385.021 37.625C386.971 37.625 388.834 37.2567 390.611 36.52V25.015ZM455.322 3.49999V49H442.712L425.422 28.33V49H410.472V3.49999H423.082L440.372 24.17V3.49999H455.322Z" stroke="white" stroke-width="4" mask="url(#path-1-outside-1)"/>
</svg>
