<svg width="719" height="53" viewBox="0 0 719 53" fill="none" xmlns="http://www.w3.org/2000/svg">
<mask id="path-1-outside-1" maskUnits="userSpaceOnUse" x="0.650024" y="0.459991" width="718" height="52" fill="black">
<rect fill="white" x="0.650024" y="0.459991" width="718" height="52"/>
<path d="M80.74 3.49999L66.18 49H49.735L42.39 24.69L34.655 49H18.21L3.65002 3.49999H19.445L27.375 29.37L35.76 3.49999H49.865L57.795 29.695L66.18 3.49999H80.74ZM121.976 37.43V49H84.1464V3.49999H121.131V15.07H99.2264V20.4H118.466V31.45H99.2264V37.43H121.976ZM164.282 25.21C166.968 26.2067 169.048 27.6583 170.522 29.565C171.995 31.4717 172.732 33.7683 172.732 36.455C172.732 40.4417 171.085 43.54 167.792 45.75C164.498 47.9167 159.732 49 153.492 49H127.882V3.49999H152.192C158.258 3.49999 162.83 4.58332 165.907 6.74999C169.027 8.91666 170.587 11.7983 170.587 15.395C170.587 17.5183 170.045 19.425 168.962 21.115C167.922 22.805 166.362 24.17 164.282 25.21ZM142.962 14.225V20.985H150.112C153.448 20.985 155.117 19.8583 155.117 17.605C155.117 15.3517 153.448 14.225 150.112 14.225H142.962ZM152.192 38.275C155.572 38.275 157.262 37.0833 157.262 34.7C157.262 32.3167 155.572 31.125 152.192 31.125H142.962V38.275H152.192ZM238.268 49L238.138 28.265L228.258 44.905H221.498L211.618 28.98V49H197.643V3.49999H210.253L225.073 27.745L239.503 3.49999H252.113L252.243 49H238.268ZM290.664 41.07H273.374L270.319 49H254.719L274.609 3.49999H289.689L309.579 49H293.719L290.664 41.07ZM286.439 30.02L282.019 18.58L277.599 30.02H286.439ZM312.027 3.49999H327.367V49H312.027V3.49999ZM379.602 3.49999V49H366.992L349.702 28.33V49H334.752V3.49999H347.362L364.652 24.17V3.49999H379.602ZM396.873 15.395H383.548V3.49999H425.538V15.395H412.213V49H396.873V15.395ZM467.352 37.43V49H429.522V3.49999H466.507V15.07H444.602V20.4H463.842V31.45H444.602V37.43H467.352ZM518.108 3.49999V49H505.498L488.208 28.33V49H473.258V3.49999H485.868L503.158 24.17V3.49999H518.108ZM556.504 41.07H539.214L536.159 49H520.559L540.449 3.49999H555.529L575.419 49H559.559L556.504 41.07ZM552.279 30.02L547.859 18.58L543.439 30.02H552.279ZM622.717 3.49999V49H610.107L592.817 28.33V49H577.867V3.49999H590.477L607.767 24.17V3.49999H622.717ZM653.638 50.04C648.828 50.04 644.495 49.0433 640.638 47.05C636.782 45.0133 633.748 42.1967 631.538 38.6C629.372 34.96 628.288 30.8433 628.288 26.25C628.288 21.6567 629.372 17.5617 631.538 13.965C633.748 10.325 636.782 7.50832 640.638 5.51499C644.495 3.47832 648.828 2.45999 653.638 2.45999C658.058 2.45999 662.002 3.23999 665.468 4.79999C668.935 6.35999 671.795 8.61332 674.048 11.56L664.363 20.205C661.547 16.6517 658.232 14.875 654.418 14.875C651.212 14.875 648.633 15.915 646.683 17.995C644.733 20.0317 643.758 22.7833 643.758 26.25C643.758 29.7167 644.733 32.49 646.683 34.57C648.633 36.6067 651.212 37.625 654.418 37.625C658.232 37.625 661.547 35.8483 664.363 32.295L674.048 40.94C671.795 43.8867 668.935 46.14 665.468 47.7C662.002 49.26 658.058 50.04 653.638 50.04ZM716.307 37.43V49H678.477V3.49999H715.462V15.07H693.557V20.4H712.797V31.45H693.557V37.43H716.307Z"/>
</mask>
<path d="M80.74 3.49999L66.18 49H49.735L42.39 24.69L34.655 49H18.21L3.65002 3.49999H19.445L27.375 29.37L35.76 3.49999H49.865L57.795 29.695L66.18 3.49999H80.74ZM121.976 37.43V49H84.1464V3.49999H121.131V15.07H99.2264V20.4H118.466V31.45H99.2264V37.43H121.976ZM164.282 25.21C166.968 26.2067 169.048 27.6583 170.522 29.565C171.995 31.4717 172.732 33.7683 172.732 36.455C172.732 40.4417 171.085 43.54 167.792 45.75C164.498 47.9167 159.732 49 153.492 49H127.882V3.49999H152.192C158.258 3.49999 162.83 4.58332 165.907 6.74999C169.027 8.91666 170.587 11.7983 170.587 15.395C170.587 17.5183 170.045 19.425 168.962 21.115C167.922 22.805 166.362 24.17 164.282 25.21ZM142.962 14.225V20.985H150.112C153.448 20.985 155.117 19.8583 155.117 17.605C155.117 15.3517 153.448 14.225 150.112 14.225H142.962ZM152.192 38.275C155.572 38.275 157.262 37.0833 157.262 34.7C157.262 32.3167 155.572 31.125 152.192 31.125H142.962V38.275H152.192ZM238.268 49L238.138 28.265L228.258 44.905H221.498L211.618 28.98V49H197.643V3.49999H210.253L225.073 27.745L239.503 3.49999H252.113L252.243 49H238.268ZM290.664 41.07H273.374L270.319 49H254.719L274.609 3.49999H289.689L309.579 49H293.719L290.664 41.07ZM286.439 30.02L282.019 18.58L277.599 30.02H286.439ZM312.027 3.49999H327.367V49H312.027V3.49999ZM379.602 3.49999V49H366.992L349.702 28.33V49H334.752V3.49999H347.362L364.652 24.17V3.49999H379.602ZM396.873 15.395H383.548V3.49999H425.538V15.395H412.213V49H396.873V15.395ZM467.352 37.43V49H429.522V3.49999H466.507V15.07H444.602V20.4H463.842V31.45H444.602V37.43H467.352ZM518.108 3.49999V49H505.498L488.208 28.33V49H473.258V3.49999H485.868L503.158 24.17V3.49999H518.108ZM556.504 41.07H539.214L536.159 49H520.559L540.449 3.49999H555.529L575.419 49H559.559L556.504 41.07ZM552.279 30.02L547.859 18.58L543.439 30.02H552.279ZM622.717 3.49999V49H610.107L592.817 28.33V49H577.867V3.49999H590.477L607.767 24.17V3.49999H622.717ZM653.638 50.04C648.828 50.04 644.495 49.0433 640.638 47.05C636.782 45.0133 633.748 42.1967 631.538 38.6C629.372 34.96 628.288 30.8433 628.288 26.25C628.288 21.6567 629.372 17.5617 631.538 13.965C633.748 10.325 636.782 7.50832 640.638 5.51499C644.495 3.47832 648.828 2.45999 653.638 2.45999C658.058 2.45999 662.002 3.23999 665.468 4.79999C668.935 6.35999 671.795 8.61332 674.048 11.56L664.363 20.205C661.547 16.6517 658.232 14.875 654.418 14.875C651.212 14.875 648.633 15.915 646.683 17.995C644.733 20.0317 643.758 22.7833 643.758 26.25C643.758 29.7167 644.733 32.49 646.683 34.57C648.633 36.6067 651.212 37.625 654.418 37.625C658.232 37.625 661.547 35.8483 664.363 32.295L674.048 40.94C671.795 43.8867 668.935 46.14 665.468 47.7C662.002 49.26 658.058 50.04 653.638 50.04ZM716.307 37.43V49H678.477V3.49999H715.462V15.07H693.557V20.4H712.797V31.45H693.557V37.43H716.307Z" stroke="white" stroke-width="4" mask="url(#path-1-outside-1)"/>
</svg>
