<svg width="542" height="53" viewBox="0 0 542 53" fill="none" xmlns="http://www.w3.org/2000/svg">
<mask id="path-1-outside-1" maskUnits="userSpaceOnUse" x="0.490967" y="0.459999" width="542" height="52" fill="black">
<rect fill="white" x="0.490967" y="0.459999" width="542" height="52"/>
<path d="M28.166 50.04C23.2693 50.04 18.871 49.0217 14.971 46.985C11.071 44.9483 8.01597 42.1317 5.80597 38.535C3.59597 34.895 2.49097 30.8 2.49097 26.25C2.49097 21.7 3.59597 17.6267 5.80597 14.03C8.01597 10.39 11.071 7.55166 14.971 5.515C18.871 3.47833 23.2693 2.46 28.166 2.46C33.0626 2.46 37.461 3.47833 41.361 5.515C45.261 7.55166 48.316 10.39 50.526 14.03C52.736 17.6267 53.841 21.7 53.841 26.25C53.841 30.8 52.736 34.895 50.526 38.535C48.316 42.1317 45.261 44.9483 41.361 46.985C37.461 49.0217 33.0626 50.04 28.166 50.04ZM28.166 37.625C30.0726 37.625 31.7843 37.17 33.301 36.26C34.861 35.3067 36.096 33.985 37.006 32.295C37.916 30.5617 38.371 28.5467 38.371 26.25C38.371 23.9533 37.916 21.96 37.006 20.27C36.096 18.5367 34.861 17.215 33.301 16.305C31.7843 15.3517 30.0726 14.875 28.166 14.875C26.2593 14.875 24.526 15.3517 22.966 16.305C21.4493 17.215 20.236 18.5367 19.326 20.27C18.416 21.96 17.961 23.9533 17.961 26.25C17.961 28.5467 18.416 30.5617 19.326 32.295C20.236 33.985 21.4493 35.3067 22.966 36.26C24.526 37.17 26.2593 37.625 28.166 37.625ZM81.3136 3.5C85.517 3.5 89.1786 4.19333 92.2986 5.58C95.4186 6.96666 97.8236 8.96 99.5136 11.56C101.204 14.16 102.049 17.1933 102.049 20.66C102.049 24.1267 101.204 27.16 99.5136 29.76C97.8236 32.36 95.4186 34.3533 92.2986 35.74C89.1786 37.1267 85.517 37.82 81.3136 37.82H74.7486V49H59.4086V3.5H81.3136ZM80.3386 25.99C82.4186 25.99 83.9786 25.535 85.0186 24.625C86.0586 23.6717 86.5786 22.35 86.5786 20.66C86.5786 18.97 86.0586 17.67 85.0186 16.76C83.9786 15.8067 82.4186 15.33 80.3386 15.33H74.7486V25.99H80.3386ZM107.08 3.5H122.42V49H107.08V3.5ZM139.684 15.395H126.359V3.5H168.349V15.395H155.024V49H139.684V15.395ZM172.333 3.5H187.673V49H172.333V3.5ZM235.683 49L235.553 28.265L225.673 44.905H218.913L209.033 28.98V49H195.058V3.5H207.668L222.488 27.745L236.918 3.5H249.528L249.658 49H235.683ZM257.075 3.5H272.415V49H257.075V3.5ZM319.969 37.105V49H278.174V39.575L298.974 15.395H278.824V3.5H318.929V12.925L298.129 37.105H319.969ZM355.428 41.07H338.138L335.083 49H319.483L339.373 3.5H354.453L374.343 49H358.483L355.428 41.07ZM351.203 30.02L346.783 18.58L342.363 30.02H351.203ZM384.386 15.395H371.061V3.5H413.051V15.395H399.726V49H384.386V15.395ZM417.036 3.5H432.376V49H417.036V3.5ZM463.615 50.04C458.719 50.04 454.32 49.0217 450.42 46.985C446.52 44.9483 443.465 42.1317 441.255 38.535C439.045 34.895 437.94 30.8 437.94 26.25C437.94 21.7 439.045 17.6267 441.255 14.03C443.465 10.39 446.52 7.55166 450.42 5.515C454.32 3.47833 458.719 2.46 463.615 2.46C468.512 2.46 472.91 3.47833 476.81 5.515C480.71 7.55166 483.765 10.39 485.975 14.03C488.185 17.6267 489.29 21.7 489.29 26.25C489.29 30.8 488.185 34.895 485.975 38.535C483.765 42.1317 480.71 44.9483 476.81 46.985C472.91 49.0217 468.512 50.04 463.615 50.04ZM463.615 37.625C465.522 37.625 467.234 37.17 468.75 36.26C470.31 35.3067 471.545 33.985 472.455 32.295C473.365 30.5617 473.82 28.5467 473.82 26.25C473.82 23.9533 473.365 21.96 472.455 20.27C471.545 18.5367 470.31 17.215 468.75 16.305C467.234 15.3517 465.522 14.875 463.615 14.875C461.709 14.875 459.975 15.3517 458.415 16.305C456.899 17.215 455.685 18.5367 454.775 20.27C453.865 21.96 453.41 23.9533 453.41 26.25C453.41 28.5467 453.865 30.5617 454.775 32.295C455.685 33.985 456.899 35.3067 458.415 36.26C459.975 37.17 461.709 37.625 463.615 37.625ZM539.708 3.5V49H527.098L509.808 28.33V49H494.858V3.5H507.468L524.758 24.17V3.5H539.708Z"/>
</mask>
<path d="M28.166 50.04C23.2693 50.04 18.871 49.0217 14.971 46.985C11.071 44.9483 8.01597 42.1317 5.80597 38.535C3.59597 34.895 2.49097 30.8 2.49097 26.25C2.49097 21.7 3.59597 17.6267 5.80597 14.03C8.01597 10.39 11.071 7.55166 14.971 5.515C18.871 3.47833 23.2693 2.46 28.166 2.46C33.0626 2.46 37.461 3.47833 41.361 5.515C45.261 7.55166 48.316 10.39 50.526 14.03C52.736 17.6267 53.841 21.7 53.841 26.25C53.841 30.8 52.736 34.895 50.526 38.535C48.316 42.1317 45.261 44.9483 41.361 46.985C37.461 49.0217 33.0626 50.04 28.166 50.04ZM28.166 37.625C30.0726 37.625 31.7843 37.17 33.301 36.26C34.861 35.3067 36.096 33.985 37.006 32.295C37.916 30.5617 38.371 28.5467 38.371 26.25C38.371 23.9533 37.916 21.96 37.006 20.27C36.096 18.5367 34.861 17.215 33.301 16.305C31.7843 15.3517 30.0726 14.875 28.166 14.875C26.2593 14.875 24.526 15.3517 22.966 16.305C21.4493 17.215 20.236 18.5367 19.326 20.27C18.416 21.96 17.961 23.9533 17.961 26.25C17.961 28.5467 18.416 30.5617 19.326 32.295C20.236 33.985 21.4493 35.3067 22.966 36.26C24.526 37.17 26.2593 37.625 28.166 37.625ZM81.3136 3.5C85.517 3.5 89.1786 4.19333 92.2986 5.58C95.4186 6.96666 97.8236 8.96 99.5136 11.56C101.204 14.16 102.049 17.1933 102.049 20.66C102.049 24.1267 101.204 27.16 99.5136 29.76C97.8236 32.36 95.4186 34.3533 92.2986 35.74C89.1786 37.1267 85.517 37.82 81.3136 37.82H74.7486V49H59.4086V3.5H81.3136ZM80.3386 25.99C82.4186 25.99 83.9786 25.535 85.0186 24.625C86.0586 23.6717 86.5786 22.35 86.5786 20.66C86.5786 18.97 86.0586 17.67 85.0186 16.76C83.9786 15.8067 82.4186 15.33 80.3386 15.33H74.7486V25.99H80.3386ZM107.08 3.5H122.42V49H107.08V3.5ZM139.684 15.395H126.359V3.5H168.349V15.395H155.024V49H139.684V15.395ZM172.333 3.5H187.673V49H172.333V3.5ZM235.683 49L235.553 28.265L225.673 44.905H218.913L209.033 28.98V49H195.058V3.5H207.668L222.488 27.745L236.918 3.5H249.528L249.658 49H235.683ZM257.075 3.5H272.415V49H257.075V3.5ZM319.969 37.105V49H278.174V39.575L298.974 15.395H278.824V3.5H318.929V12.925L298.129 37.105H319.969ZM355.428 41.07H338.138L335.083 49H319.483L339.373 3.5H354.453L374.343 49H358.483L355.428 41.07ZM351.203 30.02L346.783 18.58L342.363 30.02H351.203ZM384.386 15.395H371.061V3.5H413.051V15.395H399.726V49H384.386V15.395ZM417.036 3.5H432.376V49H417.036V3.5ZM463.615 50.04C458.719 50.04 454.32 49.0217 450.42 46.985C446.52 44.9483 443.465 42.1317 441.255 38.535C439.045 34.895 437.94 30.8 437.94 26.25C437.94 21.7 439.045 17.6267 441.255 14.03C443.465 10.39 446.52 7.55166 450.42 5.515C454.32 3.47833 458.719 2.46 463.615 2.46C468.512 2.46 472.91 3.47833 476.81 5.515C480.71 7.55166 483.765 10.39 485.975 14.03C488.185 17.6267 489.29 21.7 489.29 26.25C489.29 30.8 488.185 34.895 485.975 38.535C483.765 42.1317 480.71 44.9483 476.81 46.985C472.91 49.0217 468.512 50.04 463.615 50.04ZM463.615 37.625C465.522 37.625 467.234 37.17 468.75 36.26C470.31 35.3067 471.545 33.985 472.455 32.295C473.365 30.5617 473.82 28.5467 473.82 26.25C473.82 23.9533 473.365 21.96 472.455 20.27C471.545 18.5367 470.31 17.215 468.75 16.305C467.234 15.3517 465.522 14.875 463.615 14.875C461.709 14.875 459.975 15.3517 458.415 16.305C456.899 17.215 455.685 18.5367 454.775 20.27C453.865 21.96 453.41 23.9533 453.41 26.25C453.41 28.5467 453.865 30.5617 454.775 32.295C455.685 33.985 456.899 35.3067 458.415 36.26C459.975 37.17 461.709 37.625 463.615 37.625ZM539.708 3.5V49H527.098L509.808 28.33V49H494.858V3.5H507.468L524.758 24.17V3.5H539.708Z" stroke="white" stroke-width="4" mask="url(#path-1-outside-1)"/>
</svg>
